<?xml version="1.0" encoding="utf-8"?>
<!-- Generator: Adobe Illustrator 25.4.1, SVG Export Plug-In . SVG Version: 6.00 Build 0)  -->
<svg version="1.1" id="Layer_1" xmlns="http://www.w3.org/2000/svg" xmlns:xlink="http://www.w3.org/1999/xlink" x="0px" y="0px"
	 viewBox="0 0 100.3 36.1" style="enable-background:new 0 0 100.3 36.1;" xml:space="preserve">
<style type="text/css">
	.st0{fill:url(#Path_29_00000128460245506708416410000004909588999656911022_);}
	.st1{fill:url(#Path_30_00000072243056108756811820000010097257207642828472_);}
	.st2{fill:#FFFFFF;stroke:#000000;stroke-width:0.515;stroke-linecap:round;}
	.st3{fill:#FFFFFF;}
	.st4{fill:url(#Path_33_00000011712493903790054880000003847902556737842850_);}
	.st5{fill:url(#Path_34_00000101802043838136736630000016821553336561533619_);}
	.st6{fill:url(#Path_35_00000075138829683338381330000013283524703262510733_);}
	.st7{fill:#8B1325;}
	.st8{fill:url(#Path_37_00000043422207840596401180000015413291784753466030_);}
</style>
<g id="McAfee_Secure">
	
		<linearGradient id="Path_29_00000011013028823251079310000000947885712107476410_" gradientUnits="userSpaceOnUse" x1="-804.6937" y1="311.855" x2="-804.1608" y2="310.895" gradientTransform="matrix(34.917 0 0 -36.1299 28111.5176 11270.5869)">
		<stop  offset="0" style="stop-color:#646567"/>
		<stop  offset="9.700001e-02" style="stop-color:#717274"/>
		<stop  offset="0.317" style="stop-color:#898B8D"/>
		<stop  offset="0.54" style="stop-color:#9A9B9D"/>
		<stop  offset="0.766" style="stop-color:#A4A5A7"/>
		<stop  offset="1" style="stop-color:#A7A8AA"/>
	</linearGradient>
	<path id="Path_29" style="fill:url(#Path_29_00000011013028823251079310000000947885712107476410_);" d="M17.4,36.1
		c0,0-19.5-6.6-17.2-33.6C5.8,1,11.6,0.1,17.4,0c5.9,0.1,11.7,0.9,17.3,2.5C37,29.4,17.4,36.1,17.4,36.1z"/>
	
		<linearGradient id="Path_30_00000081648179407842330280000011294873001098797225_" gradientUnits="userSpaceOnUse" x1="-805.7974" y1="311.6373" x2="-806.4894" y2="311.1963" gradientTransform="matrix(34.7402 0 0 -36.1299 28014.6309 11270.5869)">
		<stop  offset="0" style="stop-color:#C6C7C8"/>
		<stop  offset="9.200000e-02" style="stop-color:#DCDDDD"/>
		<stop  offset="0.203" style="stop-color:#F0F0F0"/>
		<stop  offset="0.316" style="stop-color:#FBFBFB"/>
		<stop  offset="0.433" style="stop-color:#FFFFFF"/>
		<stop  offset="0.537" style="stop-color:#F6F7F7"/>
		<stop  offset="0.704" style="stop-color:#DFDFE0"/>
		<stop  offset="0.913" style="stop-color:#B9BABB"/>
		<stop  offset="1" style="stop-color:#A7A8AA"/>
	</linearGradient>
	<path id="Path_30" style="fill:url(#Path_30_00000081648179407842330280000011294873001098797225_);" d="M17.4,36.1
		c0,0-19.5-6.6-17.2-33.6C5.8,1,11.6,0.1,17.4,0c5.9,0.1,11.7,0.9,17.3,2.5l-1.8,1.6L17.4,34.4V36.1z"/>
	<path id="Path_31" class="st2" d="M17.4,34.4c0,0-17.6-6-15.6-30.5c5.1-1.4,10.3-2.2,15.6-2.3C22.7,1.7,28,2.5,33.1,3.9
		C35.1,28.3,17.4,34.4,17.4,34.4z"/>
	<g id="Group_9">
		<path id="Path_32" class="st3" d="M17.4,34.4c0,0-17.6-6-15.6-30.5c5.1-1.4,10.3-2.2,15.6-2.3C22.7,1.7,28,2.5,33.1,3.9
			C35.1,28.3,17.4,34.4,17.4,34.4z"/>
	</g>
	
		<linearGradient id="Path_33_00000039135050173849614720000010911980403599040425_" gradientUnits="userSpaceOnUse" x1="-826.537" y1="327.8992" x2="-827.326" y2="327.3822" gradientTransform="matrix(32.1357 0 0 -33.1899 26588.7793 10890.3076)">
		<stop  offset="0" style="stop-color:#4B4B4D"/>
		<stop  offset="1.300000e-02" style="stop-color:#4D4D4F"/>
		<stop  offset="0.253" style="stop-color:#67686A"/>
		<stop  offset="0.497" style="stop-color:#797A7C"/>
		<stop  offset="0.744" style="stop-color:#838486"/>
		<stop  offset="1" style="stop-color:#87888A"/>
	</linearGradient>
	<path id="Path_33" style="fill:url(#Path_33_00000039135050173849614720000010911980403599040425_);" d="M1.7,3.6H1.5v0.2
		c-1,12.8,3.3,20.5,7.2,24.7c2.4,2.7,5.4,4.8,8.7,6.1l0.1,0.1h0.1c3.3-1.3,6.3-3.4,8.7-6.1c3.8-4.2,8.2-11.9,7.1-24.6V3.7h-0.2
		c-5.1-1.4-10.4-2.1-15.7-2.2C12.2,1.6,6.9,2.3,1.7,3.6z M17.7,1.7C22.8,1.8,28,2.6,33,3.9c0.1,1.2,0.1,2.7,0.1,3.8
		c0,10.3-3.8,16.8-7.2,20.5c-2.3,2.6-5.2,4.7-8.5,6c-3.2-1.3-6.1-3.4-8.5-6C5.6,24.5,1.8,18.1,1.8,7.7c0-1.1,0.1-2.6,0.2-3.8
		C3.2,3.8,10.5,1.7,17.7,1.7z"/>
	
		<linearGradient id="Path_34_00000029762086953370908960000002545478948403131015_" gradientUnits="userSpaceOnUse" x1="-886.1339" y1="383.3428" x2="-885.3159" y2="382.7448" gradientTransform="matrix(26.5312 0 0 -25.9404 23520.2676 9952.7393)">
		<stop  offset="0" style="stop-color:#8B1325"/>
		<stop  offset="0.607" style="stop-color:#CB0233"/>
		<stop  offset="0.708" style="stop-color:#CB0233"/>
		<stop  offset="1" style="stop-color:#8A193F"/>
	</linearGradient>
	<path id="Path_34" style="fill:url(#Path_34_00000029762086953370908960000002545478948403131015_);" d="M17.4,31.3
		c0,0-14.8-5.4-13.1-25.9c0,0,6.5,0.5,13.1,0.5s13-0.5,13.2-0.5C32.3,25.9,17.4,31.3,17.4,31.3z"/>
	
		<radialGradient id="Path_35_00000047036084158587657360000017080939670839462570_" cx="-9814.3623" cy="6551.5068" r="23.551" gradientTransform="matrix(0.979 0 0 -0.979 -11.342 -518.5781)" gradientUnits="userSpaceOnUse">
		<stop  offset="0" style="stop-color:#CB0233"/>
		<stop  offset="0.461" style="stop-color:#CB0233"/>
		<stop  offset="1" style="stop-color:#8A193F"/>
	</radialGradient>
	<path id="Path_35" style="fill:url(#Path_35_00000047036084158587657360000017080939670839462570_);" d="M17.4,29.6
		c0,0-12.8-4.7-11.3-22.4c0,0,5.6,0.4,11.3,0.4s11.2-0.4,11.4-0.4C30.3,24.8,17.4,29.5,17.4,29.6z"/>
	<path id="Path_36" class="st7" d="M30.6,5.4c-0.2,0-6.6,0.5-13.2,0.5S4.3,5.4,4.3,5.4l1.8,1.8c0,0,5.6,0.4,11.3,0.4
		s11.2-0.5,11.4-0.5L30.6,5.4z"/>
	
		<linearGradient id="Path_37_00000032629207969103880920000016941364265558920091_" gradientUnits="userSpaceOnUse" x1="-1226.4926" y1="382.707" x2="-1225.0447" y2="383.56" gradientTransform="matrix(13.2363 0 0 -25.9199 16234.6602 9950.0771)">
		<stop  offset="0" style="stop-color:#8B1325"/>
		<stop  offset="0.607" style="stop-color:#CB0233"/>
		<stop  offset="0.708" style="stop-color:#CB0233"/>
		<stop  offset="1" style="stop-color:#8A193F"/>
	</linearGradient>
	<path id="Path_37" style="fill:url(#Path_37_00000032629207969103880920000016941364265558920091_);" d="M17.4,31.3
		c0,0-14.8-5.4-13.1-25.9l1.8,1.8C4.7,24.9,17.4,29.6,17.4,29.6V31.3z"/>
	<g id="Group_11">
		<g id="Group_10">
			<path id="Path_38" class="st3" d="M9.5,22.5l2.1-13.8h3.5l4.4,13.8h-3.7l-1.9-7.1l-1.1,7.1H9.5z"/>
		</g>
	</g>
	<g id="Group_13">
		<g id="Group_12">
			<path id="Path_39" class="st3" d="M20,8.7h3.5l2,13.8h-3.3L21,15.3l-1.2,5.6L18,15.3L20,8.7z"/>
		</g>
	</g>
	<g id="Group_14">
		<path id="Path_40" d="M49.4,15.4h-2.6L44.3,9l-0.9,6.4h-2.9l1.9-11.9h2.8L49.4,15.4z M47.5,9.3l2.1-5.8h2.9l1.7,11.9h-2.9L50.5,9
			l-1.7,3.8L47.5,9.3z"/>
		<path id="Path_41" d="M65,13.3l-0.7,2h-2.9l4-11.9h3l3.9,11.9h-2.9l-0.7-2C68.7,13.3,65,13.3,65,13.3z M66.9,7.1l-1.2,3.8H68
			L66.9,7.1z"/>
		<path id="Path_42" d="M86.8,11.8h-5.6c0,1.2,0.6,1.8,1.6,1.8c0.5,0,1-0.2,1.3-0.7h2.5c-0.2,0.9-0.7,1.6-1.4,2.1s-1.5,0.7-2.4,0.7
			c-2.2,0.2-4.1-1.5-4.3-3.7v-0.6c-0.2-2.2,1.4-4.1,3.6-4.3h0.5c2.6,0,4.1,1.8,4.1,4.5C86.7,11.6,86.8,11.8,86.8,11.8z M84.4,10.1
			c-0.1-0.7-0.8-1.3-1.5-1.3c-0.8,0-1.4,0.5-1.6,1.3H84.4z"/>
		<path id="Path_43" d="M95.9,11.8h-5.6c0,1.2,0.6,1.8,1.7,1.8c0.5,0,1-0.2,1.3-0.7h2.5c-0.2,0.9-0.7,1.6-1.4,2.1s-1.5,0.7-2.4,0.7
			c-2.2,0.2-4.2-1.5-4.3-3.7v-0.6c-0.2-2.2,1.4-4.1,3.6-4.3h0.6c2.6,0,4.1,1.8,4.1,4.5C96,11.6,95.9,11.8,95.9,11.8z M93.5,10.1
			c-0.1-0.7-0.8-1.3-1.5-1.3c-0.8,0-1.4,0.5-1.6,1.3H93.5z"/>
		<path id="Path_44" d="M96.3,5.7c0-1.1,0.9-2,2-2s2,0.9,2,2s-0.9,2-2,2S96.3,6.9,96.3,5.7z M96.6,5.7c0,0.9,0.8,1.7,1.7,1.7
			c0.9,0,1.7-0.8,1.7-1.7S99.2,4,98.3,4S96.6,4.7,96.6,5.7z M99.3,6.8h-0.4l-0.6-1h-0.4v1h-0.3V4.6h0.9c0.4,0,0.8,0.1,0.8,0.6
			c0,0.3-0.2,0.6-0.5,0.6h-0.2C98.6,5.8,99.3,6.8,99.3,6.8z M97.9,4.9v0.6h0.4c0.3,0,0.7,0,0.7-0.3s-0.2-0.3-0.5-0.3H97.9z"/>
	</g>
	<g id="Group_15">
		<path id="Path_45" d="M73.3,9.3h-1.5v-2h1.6V6.4c0-2.4,1.1-3.2,3.2-3.2c0.5,0,0.9,0.1,1.3,0.1l-0.1,1.9c-0.3-0.1-0.5-0.1-0.8-0.1
			c-0.7,0-0.9,0.5-0.9,1.3v0.9H78v2h-2v6.1h-2.7C73.3,15.4,73.3,9.3,73.3,9.3z"/>
	</g>
	<g id="Group_16">
		<path id="Path_46" d="M46.4,21.1c-0.7-0.3-1.4-0.5-2.1-0.5c-0.9,0-2,0.3-2,1.5c0,2.1,5,1.6,5,5.3c0,2.4-1.9,3.4-4.2,3.4
			c-0.8,0-1.6-0.2-2.3-0.5l0.2-1.5c0.8,0.3,1.6,0.5,2.4,0.6c0.9,0,2.2-0.5,2.2-1.9c0-2.5-4.9-1.9-4.9-5.3c0-2,1.7-3,3.7-3
			c0.8,0,1.7,0.2,2.5,0.4C46.9,19.6,46.4,21.1,46.4,21.1z"/>
		<path id="Path_47" d="M49.5,19.4H56v1.4h-4.8v3.3h4.4v1.4h-4.4v3.7H56v1.4h-6.5V19.4z"/>
		<path id="Path_48" d="M65.9,21.2c-0.7-0.4-1.5-0.6-2.4-0.6c-2.4,0-4.4,1.9-4.4,4.3c0,2.4,1.9,4.4,4.3,4.4c0.9,0,1.7-0.2,2.5-0.6
			l0.1,1.5c-0.8,0.3-1.7,0.5-2.6,0.5c-3.6,0-6.1-2.3-6.1-5.9c0-3.4,2.6-5.8,6.1-5.8c0.9,0,1.8,0.1,2.6,0.5
			C66,19.5,65.9,21.2,65.9,21.2z"/>
		<path id="Path_49" d="M76.4,25.9c0,3.2-1.7,4.8-4.5,4.8s-4.5-1.7-4.5-4.8v-6.5H69v6.4c0,2.1,0.7,3.6,2.8,3.6s2.8-1.5,2.8-3.6v-6.4
			h1.7L76.4,25.9z"/>
		<path id="Path_50" d="M79,19.4h2.8c2.3,0,4.5,0.4,4.5,3c0,1.3-1.1,2.4-2.4,2.5c0.5,0.2,0.7,0.4,1.1,1.1l2.2,4.5h-1.9l-1.8-3.9
			c-0.5-1.1-1.1-1.1-1.9-1.1h-1v5H79C79,30.5,79,19.4,79,19.4z M80.6,24.2H82c1.6,0,2.5-0.7,2.5-1.8c0-1-0.8-1.7-2.3-1.7h-1.6V24.2z
			"/>
		<path id="Path_51" d="M89.1,19.4h6.5v1.4h-4.8v3.3h4.4v1.4h-4.4v3.7h4.8v1.4h-6.5V19.4z"/>
	</g>
	<path id="Path_52" d="M60.8,9.8c-0.5-0.3-1-0.5-1.6-0.5c-1.1,0-2,0.9-2,2v0.2c0,1.1,0.9,2.1,2.1,2.1h0.1c0.6,0,1.1-0.1,1.7-0.4v2
		c-0.7,0.3-1.4,0.4-2.1,0.4c-2.3,0.2-4.2-1.5-4.4-3.8v-0.4c-0.1-2.3,1.7-4.2,4-4.2H59c0.7,0,1.4,0.1,2,0.5C61,7.7,60.8,9.8,60.8,9.8
		z"/>
</g>
</svg>
