<svg xmlns="http://www.w3.org/2000/svg" xmlns:xlink="http://www.w3.org/1999/xlink" width="347" zoomAndPan="magnify" viewBox="0 0 260.25 260.249984" height="347" preserveAspectRatio="xMidYMid meet" version="1.0"><defs><clipPath id="f59f2e55ff"><path d="M 3.554688 3.554688 L 255.578125 3.554688 L 255.578125 255.578125 L 3.554688 255.578125 Z M 3.554688 3.554688 " clip-rule="nonzero"/></clipPath></defs><g clip-path="url(#f59f2e55ff)"><path fill="#ffffff" d="M 129.746094 3.554688 C 60.058594 3.554688 3.554688 60.058594 3.554688 129.746094 C 3.554688 199.433594 60.058594 255.941406 129.746094 255.941406 C 199.433594 255.941406 255.941406 199.433594 255.941406 129.746094 C 255.941406 60.058594 199.433594 3.554688 129.746094 3.554688 Z M 200.769531 110.269531 L 126.933594 184.105469 C 123.378906 187.660156 118.566406 189.660156 113.53125 189.660156 C 108.566406 189.660156 103.753906 187.660156 100.199219 184.105469 L 63.320312 147.226562 C 55.914062 139.820312 55.914062 127.894531 63.320312 120.492188 C 70.722656 113.160156 82.574219 113.160156 89.980469 120.492188 L 113.53125 144.113281 L 174.035156 83.609375 C 181.441406 76.203125 193.363281 76.203125 200.769531 83.609375 C 208.101562 90.941406 208.101562 102.863281 200.769531 110.269531 Z M 200.769531 110.269531 " fill-opacity="1" fill-rule="nonzero"/></g><path fill="#146fff" d="M 200.769531 110.269531 L 126.933594 184.105469 C 123.378906 187.660156 118.566406 189.660156 113.53125 189.660156 C 108.566406 189.660156 103.753906 187.660156 100.199219 184.105469 L 63.320312 147.226562 C 55.914062 139.820312 55.914062 127.894531 63.320312 120.492188 C 70.722656 113.160156 82.574219 113.160156 89.980469 120.492188 L 113.53125 144.113281 L 174.035156 83.609375 C 181.441406 76.203125 193.363281 76.203125 200.769531 83.609375 C 208.101562 90.941406 208.101562 102.863281 200.769531 110.269531 Z M 200.769531 110.269531 " fill-opacity="1" fill-rule="nonzero"/></svg>