<svg xmlns="http://www.w3.org/2000/svg" xmlns:xlink="http://www.w3.org/1999/xlink" width="347" zoomAndPan="magnify" viewBox="0 0 260.25 260.249984" height="347" preserveAspectRatio="xMidYMid meet" version="1.0"><defs><clipPath id="3ec39a33f3"><path d="M 3.554688 3.554688 L 255.578125 3.554688 L 255.578125 255.578125 L 3.554688 255.578125 Z M 3.554688 3.554688 " clip-rule="nonzero"/></clipPath></defs><g clip-path="url(#3ec39a33f3)"><path fill="#ffffff" d="M 255.957031 129.761719 C 255.957031 199.457031 199.457031 255.957031 129.761719 255.957031 C 60.066406 255.957031 3.566406 199.457031 3.566406 129.761719 C 3.566406 60.066406 60.066406 3.566406 129.761719 3.566406 C 199.457031 3.566406 255.957031 60.066406 255.957031 129.761719 " fill-opacity="1" fill-rule="nonzero"/></g><path fill="#146fff" d="M 192.015625 67.503906 C 185.917969 61.40625 176.027344 61.40625 169.925781 67.503906 L 129.761719 107.671875 L 89.59375 67.503906 C 83.496094 61.40625 73.605469 61.40625 67.503906 67.503906 C 61.40625 73.605469 61.40625 83.496094 67.503906 89.59375 L 107.671875 129.761719 L 67.503906 169.925781 C 61.40625 176.027344 61.40625 185.917969 67.503906 192.015625 C 73.605469 198.117188 83.496094 198.117188 89.59375 192.015625 L 129.761719 151.851562 L 169.925781 192.015625 C 176.027344 198.117188 185.917969 198.117188 192.015625 192.015625 C 198.117188 185.917969 198.117188 176.027344 192.015625 169.925781 L 151.851562 129.761719 L 192.015625 89.59375 C 198.117188 83.496094 198.117188 73.605469 192.015625 67.503906 " fill-opacity="1" fill-rule="nonzero"/></svg>