<svg width="209" height="32" fill="none" xmlns="http://www.w3.org/2000/svg"><path d="M30.238 10.383H12.766V2.59a.294.294 0 01.294-.295h6.03a.294.294 0 01.294.294v3.413a1.177 1.177 0 001.118 1.176 1 1 0 00.853-.323 1.148 1.148 0 00.324-.824v-4.09A1.941 1.941 0 0019.737 0h-7.324a1.971 1.971 0 00-1.941 1.941v8.825a2.03 2.03 0 002.03 2.03H29.65v6.647H2.44a.147.147 0 01-.147-.147v-6.412l.147-.147h3.53a1.147 1.147 0 001.147-1.148 1.118 1.118 0 00-1.147-1.147H1.824A1.823 1.823 0 000 12.266v7.56a1.853 1.853 0 001.824 1.853h28.385a1.824 1.824 0 001.794-1.795v-7.648a1.793 1.793 0 00-1.765-1.853zm-9.756 14.411a1.176 1.176 0 00-1.148 1.147v3.5a.236.236 0 01-.235.265h-6.147a.264.264 0 01-.236-.265v-3.5a1.177 1.177 0 00-1.147-1.147 1.147 1.147 0 00-1.147 1.147v4.088A1.97 1.97 0 0012.363 32h7.325a1.942 1.942 0 001.94-1.97v-4.09a1.147 1.147 0 00-1.146-1.146z" fill="#1270FF"/><path d="M50.038 7.625a7.618 7.618 0 013.324.648 4.824 4.824 0 012.117 1.853c.524.889.78 1.91.736 2.941a5.5 5.5 0 01-.736 2.942 5.03 5.03 0 01-2.117 1.853 8.06 8.06 0 01-3.324.647h-3.471v5.883h-3.5V7.625h6.97zm-.53 8.207c.849.06 1.692-.18 2.383-.676a2.442 2.442 0 00.765-1.971 2.442 2.442 0 00-.765-2 3.648 3.648 0 00-2.383-.648h-2.941v5.295h2.941zm13.659-4.417a6.912 6.912 0 013.382.794 5.678 5.678 0 012.295 2.265 7.09 7.09 0 01.823 3.56 6.972 6.972 0 01-.823 3.53 5.56 5.56 0 01-2.295 2.293 6.912 6.912 0 01-3.382.795 7.09 7.09 0 01-3.383-.795 5.883 5.883 0 01-2.294-2.294 6.97 6.97 0 01-.824-3.53 7.089 7.089 0 01.824-3.559 5.883 5.883 0 012.294-2.265 7.09 7.09 0 013.383-.794zm0 2.618a2.942 2.942 0 00-1.648.441 2.941 2.941 0 00-1.029 1.324 6.03 6.03 0 00-.353 2.235 6.03 6.03 0 00.353 2.236 2.94 2.94 0 001.03 1.323c.493.307 1.066.46 1.647.442.57.013 1.132-.14 1.617-.442a2.941 2.941 0 001.03-1.323 6.03 6.03 0 00.353-2.236 6.03 6.03 0 00-.353-2.235 2.942 2.942 0 00-1.03-1.324 2.941 2.941 0 00-1.617-.441zm11.577-6.411v12.854c-.045.433.058.869.294 1.235a1.323 1.323 0 001.03.353c.234.035.472.035.706 0l.706-.176-.294 2.265a3.33 3.33 0 01-1.089.411c-.415.091-.84.14-1.265.148a3.618 3.618 0 01-2.706-.912 4.03 4.03 0 01-.853-2.942V7.622h3.471zm5.948 2.314a2.353 2.353 0 01-1.617-.471 1.794 1.794 0 01-.53-1.383 1.764 1.764 0 01.53-1.411 2.353 2.353 0 011.617-.471 2.441 2.441 0 011.648.47 1.765 1.765 0 01.529 1.412 1.794 1.794 0 01-.53 1.383 2.44 2.44 0 01-1.647.47zm1.736 1.823v12.707h-3.5V11.76h3.5zm8.645-.342a7.445 7.445 0 012.941.5c.738.29 1.394.754 1.912 1.353a4.94 4.94 0 011.03 1.883l-3.236 1.176a3.47 3.47 0 00-.883-1.735 2.294 2.294 0 00-1.647-.559 2.942 2.942 0 00-1.647.441 2.941 2.941 0 00-1.059 1.324 6.325 6.325 0 00-.353 2.265 6.09 6.09 0 00.382 2.235c.2.545.572 1.01 1.06 1.324.496.296 1.069.44 1.647.412.445.01.888-.08 1.294-.265.357-.17.662-.435.882-.765.245-.362.406-.774.47-1.206l3.148 1a4.265 4.265 0 01-1.059 2 4.912 4.912 0 01-1.941 1.354 7.353 7.353 0 01-2.765.5 7.295 7.295 0 01-3.47-.794 5.5 5.5 0 01-2.295-2.265 7.088 7.088 0 01-.824-3.56 7.088 7.088 0 01.824-3.559 5.588 5.588 0 012.265-2.265 7.09 7.09 0 013.324-.794zm16.15.255l-2.324 7.471-.794 2.706-.647-2.559-2.412-7.618h-3.854l3.883 9.59 1.383 3.382-.412 1.088a2.328 2.328 0 01-.883 1.236 2.735 2.735 0 01-1.235.294 4.03 4.03 0 01-1.236-.177 2.943 2.943 0 01-1-.53l-.735 2.5c.445.282.931.49 1.441.619.581.18 1.187.27 1.795.264a5.527 5.527 0 002.323-.47 4.323 4.323 0 001.736-1.471 9.857 9.857 0 001.353-2.736l5.147-13.5-3.529-.09zm19.591-4.059V24.38h-4.001l-5.882-9.854-1.442-2.765v12.648h-3.147V7.643h4l5.883 9.824 1.471 2.765V7.584l3.118.03zm14.505 14.633c-.588 0-.912-.324-.912-.97v-5.148a4.551 4.551 0 00-.706-2.618 4.148 4.148 0 00-1.941-1.56 7.353 7.353 0 00-2.942-.529 6.707 6.707 0 00-3.912 1.03 4.503 4.503 0 00-1.912 2.676l2.942.942a2.94 2.94 0 011.059-1.618 2.94 2.94 0 011.647-.47 2.353 2.353 0 011.647.588 2.324 2.324 0 01.618 1.705v.5l-4.383.883a4.856 4.856 0 00-2.618 1.235 2.946 2.946 0 00-.912 2.324 3.447 3.447 0 00.5 1.883c.367.518.879.917 1.471 1.147a5.65 5.65 0 002.236.382 5.88 5.88 0 002-.353 4.241 4.241 0 001.677-1.03c.136-.141.254-.3.352-.47.076.211.165.418.265.618.284.41.683.728 1.147.912a3.917 3.917 0 001.589.323 3.5 3.5 0 001.647-.353l.206-2.147a2.528 2.528 0 01-.765.118zm-4.589-1.353c-.14.31-.364.575-.647.764a2.324 2.324 0 01-.912.383 3.935 3.935 0 01-1.029.147 1.911 1.911 0 01-1.147-.353 1.114 1.114 0 01-.471-.941 1.115 1.115 0 01.471-.97c.401-.232.839-.39 1.294-.472l2.677-.53v.795a2.94 2.94 0 01-.236 1.177zm14.965.371a2.716 2.716 0 01-.883.529 3.15 3.15 0 01-1.118.206 1.733 1.733 0 01-1.264-.441 1.613 1.613 0 01-.471-1.324v-5.883h4.059v-2.588h-4.059V7.88l-3.5.97v2.942h-2.324v2.589h2.324v6.53a4.113 4.113 0 00.558 2.235c.368.562.903.994 1.53 1.235a6.469 6.469 0 002.235.354 7.035 7.035 0 001.942-.265 4.378 4.378 0 001.529-.765l-.558-2.441zm4.034-11.328a2.62 2.62 0 01-1.648-.471 1.795 1.795 0 01-.529-1.383 1.74 1.74 0 01.529-1.411 2.445 2.445 0 011.648-.471 2.354 2.354 0 011.618.47 1.74 1.74 0 01.529 1.412 1.795 1.795 0 01-.529 1.382 2.531 2.531 0 01-1.618.472zm1.706 1.823v12.707h-3.471V11.76h3.471zm8.435-.344a6.908 6.908 0 013.382.794 5.505 5.505 0 012.295 2.265 7.077 7.077 0 01.823 3.56 6.965 6.965 0 01-.823 3.53 5.384 5.384 0 01-2.295 2.293 6.91 6.91 0 01-3.382.765 7.088 7.088 0 01-3.383-.765 5.877 5.877 0 01-2.294-2.294 6.976 6.976 0 01-.824-3.53 7.088 7.088 0 01.824-3.559 5.88 5.88 0 012.294-2.265 7.09 7.09 0 013.383-.794zm0 2.589a2.94 2.94 0 00-1.647.47 2.942 2.942 0 00-1.03 1.324 6.034 6.034 0 00-.353 2.235c-.022.76.098 1.519.353 2.236.208.532.565.991 1.03 1.323.493.307 1.066.46 1.647.442.57.013 1.133-.14 1.618-.442a2.94 2.94 0 001.029-1.323 6.141 6.141 0 00.353-2.236 6.014 6.014 0 00-.353-2.235 2.94 2.94 0 00-1.029-1.324 2.945 2.945 0 00-1.618-.47zm19.713-.531a3.679 3.679 0 00-1.618-1.53 5.119 5.119 0 00-2.353-.53 5.293 5.293 0 00-2.088.413 3.85 3.85 0 00-1.618 1.206 4.994 4.994 0 00-.618 1.03v-2.383h-3.147v12.707h3.5V17.65a4.35 4.35 0 01.412-2.03c.255-.464.631-.85 1.088-1.118a3.296 3.296 0 011.383-.323 2.238 2.238 0 011.647.617 2.94 2.94 0 01.647 2.236v7.354h3.471V16.06a4.886 4.886 0 00-.706-2.588zm14.614 8.773c-.588 0-.912-.324-.912-.97v-5.148a4.788 4.788 0 00-.676-2.618 4.385 4.385 0 00-1.971-1.56 7.353 7.353 0 00-2.942-.529 6.706 6.706 0 00-3.912 1.03 4.623 4.623 0 00-1.912 2.676l2.942.942a2.94 2.94 0 011.059-1.618 2.94 2.94 0 011.647-.47 2.353 2.353 0 011.647.588 2.324 2.324 0 01.618 1.705v.5l-4.383.883a4.856 4.856 0 00-2.618 1.235 3.205 3.205 0 00-.912 2.324 3.447 3.447 0 00.5 1.883c.367.518.879.917 1.471 1.147a5.65 5.65 0 002.236.382 5.88 5.88 0 002-.353 4.23 4.23 0 001.676-1.03 2.4 2.4 0 00.353-.47c.074.217.173.424.295.618a2.29 2.29 0 001.117.912 3.914 3.914 0 001.589.323 3.5 3.5 0 001.647-.353l.206-2.147a2.533 2.533 0 01-.765.118zm-4.353-2.53a2.94 2.94 0 01-.236 1.177c-.14.31-.364.575-.647.764a2.324 2.324 0 01-.912.383 3.935 3.935 0 01-1.029.147 1.767 1.767 0 01-1.118-.353 1.031 1.031 0 01-.47-.941 1.09 1.09 0 01.441-.971c.403-.226.84-.384 1.294-.47l2.677-.53v.794zm10.038-12.098v12.854c-.046.433.058.87.294 1.236a1.262 1.262 0 001.029.353c.235.031.472.031.706 0l.706-.177-.294 2.265a3.646 3.646 0 01-1.088.412 6.402 6.402 0 01-1.294 0 3.619 3.619 0 01-2.707-.883 4.18 4.18 0 01-.853-2.94V7.5l3.501.118z" fill="#000"/></svg>